<?xml version="1.0" encoding="iso-8859-1"?>
<!-- Generator: Adobe Illustrator 18.0.0, SVG Export Plug-In . SVG Version: 6.00 Build 0)  -->
<!DOCTYPE svg PUBLIC "-//W3C//DTD SVG 1.1//EN" "http://www.w3.org/Graphics/SVG/1.1/DTD/svg11.dtd">
<svg version="1.1" id="Capa_1" xmlns="http://www.w3.org/2000/svg" xmlns:xlink="http://www.w3.org/1999/xlink" x="0px" y="0px"
	 viewBox="0 0 385.253 385.253" style="enable-background:new 0 0 385.253 385.253;" xml:space="preserve">
<g>
	<path d="M149.761,197.997c2.209,1.229,15.195,8.895,25.801,24.627h34.137c10.605-15.739,23.582-23.398,25.788-24.626
		c16.385-9.108,42.684-22.488,44.731-23.528c1.014-0.561,2.061-1.052,3.123-1.5V46.699h-68.104v51.889h-3.633l-9.154-9.156
		l-9.158,9.156h-1.334l-9.156-9.156l-9.156,9.156h-3.631V46.699h-68.104v126.273c1.063,0.448,2.107,0.939,3.121,1.499
		C107.086,175.514,133.383,188.891,149.761,197.997z"/>
	<path d="M370.111,94.643c-1.825-0.51-3.703-0.769-5.578-0.769c-9.248,0-17.443,6.225-19.928,15.137L323.3,185.253
		c2.624,4.277,6.215,12.124,4.697,21.36c-1.607,9.772-8.251,18.18-19.749,24.99c-0.107,0.063-0.214,0.124-0.324,0.181
		l-36.678,19.299c-1.094,0.576-2.268,0.849-3.425,0.849c-2.648,0-5.208-1.432-6.526-3.939c-1.895-3.602-0.512-8.057,3.09-9.952
		l36.508-19.209c7.476-4.461,11.702-9.375,12.563-14.608c1.113-6.777-3.72-12.76-3.77-12.817c-0.003-0.003-0.005-0.007-0.008-0.011
		c-0.002-0.002-0.004-0.003-0.006-0.005c-3.405-3.983-8.384-6.268-13.658-6.268c-3.042,0-6.064,0.792-8.741,2.288
		c-0.086,0.048-0.174,0.095-0.262,0.14c-0.274,0.139-27.638,14.031-44.361,23.328c-1.136,0.632-27.923,15.912-31.988,50.754
		l-8.123,76.924h63.77l5.278-40.654c0.285-2.2,1.547-4.154,3.435-5.32l67.186-41.498c4.438-2.747,7.659-7.028,9.063-12.049
		l33.217-118.866C387.56,109.169,381.111,97.719,370.111,94.643z"/>
	<path d="M142.598,210.876c-16.723-9.298-44.084-23.188-44.358-23.327c-0.088-0.045-0.176-0.092-0.263-0.14
		c-2.676-1.497-5.697-2.288-8.738-2.288c-5.271,0-10.247,2.283-13.652,6.262c-0.267,0.33-4.935,6.233-3.771,12.948
		c0.899,5.192,5.119,10.07,12.543,14.5l36.51,19.209c3.602,1.895,4.985,6.351,3.09,9.952c-1.318,2.506-3.878,3.938-6.526,3.939
		c-1.157,0-2.33-0.273-3.425-0.849l-36.68-19.299c-0.109-0.058-0.218-0.118-0.324-0.181c-11.498-6.81-18.143-15.218-19.748-24.99
		c-1.518-9.236,2.073-17.082,4.698-21.36l-21.306-76.237c-2.485-8.917-10.68-15.142-19.928-15.142c-1.875,0-3.752,0.259-5.58,0.769
		C4.142,97.719-2.307,109.169,0.766,120.167l33.217,118.867c1.401,5.019,4.621,9.299,9.065,12.054l67.179,41.492
		c1.888,1.166,3.149,3.12,3.435,5.32l5.281,40.655h63.772l-8.135-77.004C170.524,226.789,143.737,211.509,142.598,210.876z"/>
</g>
<g>
</g>
<g>
</g>
<g>
</g>
<g>
</g>
<g>
</g>
<g>
</g>
<g>
</g>
<g>
</g>
<g>
</g>
<g>
</g>
<g>
</g>
<g>
</g>
<g>
</g>
<g>
</g>
<g>
</g>
</svg>
